<svg width="21" height="20" viewBox="0 0 21 20" fill="none" xmlns="http://www.w3.org/2000/svg">
<g id="mage:filter">
<path id="Vector" d="M18.2084 10.0022H7.91252M4.27835 10.0022H2.79169M4.27835 10.0022C4.27835 9.52038 4.46975 9.0583 4.81044 8.71761C5.15113 8.37692 5.61321 8.18552 6.09502 8.18552C6.57683 8.18552 7.03891 8.37692 7.3796 8.71761C7.72029 9.0583 7.91169 9.52038 7.91169 10.0022C7.91169 10.484 7.72029 10.9461 7.3796 11.2868C7.03891 11.6275 6.57683 11.8189 6.09502 11.8189C5.61321 11.8189 5.15113 11.6275 4.81044 11.2868C4.46975 10.9461 4.27835 10.484 4.27835 10.0022ZM18.2084 15.508H13.4184M13.4184 15.508C13.4184 15.9899 13.2265 16.4525 12.8857 16.7933C12.545 17.1341 12.0828 17.3255 11.6009 17.3255C11.119 17.3255 10.657 17.1333 10.3163 16.7926C9.97559 16.4519 9.78419 15.9898 9.78419 15.508M13.4184 15.508C13.4184 15.0261 13.2265 14.5643 12.8857 14.2236C12.545 13.8828 12.0828 13.6914 11.6009 13.6914C11.119 13.6914 10.657 13.8828 10.3163 14.2234C9.97559 14.5641 9.78419 15.0262 9.78419 15.508M9.78419 15.508H2.79169M18.2084 4.49635H15.6209M11.9867 4.49635H2.79169M11.9867 4.49635C11.9867 4.01454 12.1781 3.55247 12.5188 3.21178C12.8595 2.87109 13.3215 2.67969 13.8034 2.67969C14.0419 2.67969 14.2782 2.72668 14.4986 2.81797C14.719 2.90927 14.9192 3.04308 15.0879 3.21178C15.2566 3.38047 15.3904 3.58074 15.4817 3.80115C15.573 4.02155 15.62 4.25779 15.62 4.49635C15.62 4.73492 15.573 4.97115 15.4817 5.19156C15.3904 5.41197 15.2566 5.61224 15.0879 5.78093C14.9192 5.94962 14.719 6.08344 14.4986 6.17474C14.2782 6.26603 14.0419 6.31302 13.8034 6.31302C13.3215 6.31302 12.8595 6.12162 12.5188 5.78093C12.1781 5.44024 11.9867 4.97816 11.9867 4.49635Z" stroke="black" stroke-width="1.5" stroke-miterlimit="10" stroke-linecap="round"/>
</g>
</svg>
